<svg width="46" height="46" viewBox="0 0 46 46" fill="none" xmlns="http://www.w3.org/2000/svg">
<path d="M23.0241 43.9658C20.9723 43.9658 18.9312 43.665 16.9653 43.0849C14.978 42.4941 13.0873 41.6024 11.3578 40.453C9.5745 39.2713 7.98461 37.7996 6.6418 36.1345C5.28825 34.4587 4.19251 32.568 3.41906 30.5592C2.66708 28.6148 2.20515 26.563 2.05476 24.4897C1.90436 22.4379 2.0655 20.3646 2.51668 18.3665C2.96787 16.3576 3.71985 14.4132 4.72964 12.63C5.77166 10.7823 7.10373 9.10644 8.65065 7.6562C10.2405 6.17374 12.0668 4.92761 14.0326 4.00376C15.9233 3.11213 17.9429 2.49981 20.0162 2.20977C22.0465 1.91972 24.1198 1.93046 26.1501 2.24199C28.1912 2.55353 30.1893 3.16585 32.0585 4.04673C33.9492 4.9491 35.7002 6.13077 37.2364 7.55952C38.8478 9.04199 40.2121 10.7823 41.297 12.6837C42.3605 14.5636 43.1233 16.6047 43.5637 18.7102C43.9934 20.762 44.1008 22.8676 43.9075 24.9516C43.7141 27.0249 43.2092 29.0767 42.4143 31.0104C42.049 31.8912 41.0392 34.1579 39.1271 36.4461C38.1925 37.5633 37.3008 38.3797 36.9141 38.7127C36.6348 38.9598 35.8936 39.6043 34.916 40.2704C32.3378 42.0429 29.8456 42.8486 29.1473 43.0634C27.8582 43.4394 25.7204 43.9658 23.0241 43.9658Z" stroke="url(#paint0_linear)" stroke-width="3" stroke-miterlimit="10"/>
<path d="M33.4228 34.1794C32.3485 35.1892 31.1132 36.0486 29.7918 36.7146C28.449 37.3806 27.0095 37.8533 25.5378 38.1004C24.0124 38.3582 22.444 38.3797 20.9185 38.1541C19.3716 37.9393 17.8677 37.4881 16.4604 36.8113C15.1069 36.156 13.85 35.3073 12.7435 34.2868C11.6478 33.277 10.7132 32.1061 9.95046 30.8277C9.19849 29.5494 8.62914 28.1529 8.27464 26.7026C7.90939 25.2094 7.78048 23.6732 7.87716 22.1478C7.98459 20.5794 8.32835 19.0217 8.8977 17.5608C9.44557 16.1535 10.219 14.8322 11.1644 13.6505C12.0882 12.4903 13.1839 11.4698 14.4086 10.6319C15.6332 9.78321 16.9975 9.11717 18.4155 8.66599C19.855 8.20406 21.3697 7.96773 22.8844 7.95698C24.4636 7.94624 26.0534 8.18258 27.5574 8.65525C29.0506 9.11717 30.4579 9.81543 31.7362 10.7071C32.9716 11.5772 34.0781 12.63 35.0127 13.8331C35.9365 15.0255 36.6885 16.3576 37.2149 17.7649C37.462 18.4094 38.0528 20.1067 38.171 22.2552C38.2354 23.308 38.1602 24.1781 38.128 24.5434C38.1065 24.8119 38.0313 25.5102 37.8487 26.3589C37.3653 28.5718 36.4522 30.2262 36.1836 30.6881C35.7109 31.5153 34.8408 32.8473 33.4228 34.1794Z" stroke="url(#paint1_linear)" stroke-width="3" stroke-miterlimit="10"/>
<path d="M15.1069 19.5481C15.4936 18.7639 15.9878 18.0442 16.5893 17.3996C17.1909 16.7551 17.8892 16.1965 18.6519 15.756C19.4361 15.3049 20.2955 14.9718 21.1871 14.7677C22.0787 14.5744 23.0133 14.5099 23.9265 14.5851C24.8073 14.6603 25.6775 14.8752 26.5047 15.2082C27.3103 15.5412 28.073 15.9924 28.7498 16.5402C29.4266 17.0881 30.0282 17.7434 30.5223 18.4632C31.0272 19.2044 31.4247 20.0316 31.6825 20.891C31.9511 21.7826 32.08 22.7064 32.0585 23.6303C32.0478 24.5219 31.8974 25.4028 31.6181 26.2514C31.3495 27.0786 30.952 27.8736 30.4471 28.5826C29.9422 29.3023 29.3299 29.9469 28.6424 30.4947C27.9441 31.0426 27.1599 31.4938 26.322 31.8053C25.4519 32.1383 24.528 32.3317 23.6042 32.3854C22.6911 32.4391 21.7672 32.3424 20.8756 32.1168C20.0162 31.8913 19.189 31.5368 18.4263 31.0748C17.6743 30.6129 16.9868 30.0328 16.396 29.356C16.1274 29.0552 15.4506 28.2388 14.9457 27.0786C14.6987 26.5093 14.559 26.0151 14.4946 25.811C14.4516 25.6606 14.3442 25.2524 14.2797 24.7582C14.0863 23.4369 14.2582 22.3412 14.3012 22.0297C14.3979 21.4818 14.602 20.5687 15.1069 19.5481Z" stroke="url(#paint2_linear)" stroke-width="3" stroke-miterlimit="10"/>
<defs>
<linearGradient id="paint0_linear" x1="10.8918" y1="42.0689" x2="35.1095" y2="3.88406" gradientUnits="userSpaceOnUse">
<stop offset="0.0668576" stop-color="#59D633" stop-opacity="0.7"/>
<stop offset="0.1148" stop-color="#49C953" stop-opacity="0.6808"/>
<stop offset="0.1909" stop-color="#33B880" stop-opacity="0.6504"/>
<stop offset="0.2676" stop-color="#21A9A5" stop-opacity="0.6197"/>
<stop offset="0.3438" stop-color="#129EC2" stop-opacity="0.5892"/>
<stop offset="0.4193" stop-color="#0895D7" stop-opacity="0.559"/>
<stop offset="0.494" stop-color="#0291E3" stop-opacity="0.5291"/>
<stop offset="0.5667" stop-color="#008FE7" stop-opacity="0.5"/>
<stop offset="0.6492" stop-color="#558AC0" stop-opacity="0.433"/>
<stop offset="0.7624" stop-color="#C5848C" stop-opacity="0.3409"/>
<stop offset="0.8128" stop-color="#F28177" stop-opacity="0.3"/>
<stop offset="0.8887" stop-color="#F29575" stop-opacity="0.1784"/>
<stop offset="1" stop-color="#F2AE72" stop-opacity="0"/>
</linearGradient>
<linearGradient id="paint1_linear" x1="26.1684" y1="39.6295" x2="19.875" y2="6.64107" gradientUnits="userSpaceOnUse">
<stop stop-color="#D1AA82" stop-opacity="0.0132804"/>
<stop offset="0.1463" stop-color="#E98C7A" stop-opacity="0.2258"/>
<stop offset="0.1974" stop-color="#F28177" stop-opacity="0.3"/>
<stop offset="0.2827" stop-color="#BC8490" stop-opacity="0.3482"/>
<stop offset="0.4772" stop-color="#358CCE" stop-opacity="0.4581"/>
<stop offset="0.5513" stop-color="#008FE7" stop-opacity="0.5"/>
<stop offset="0.8801" stop-color="#54D23D" stop-opacity="0.6886"/>
<stop offset="0.9" stop-color="#59D633" stop-opacity="0.7"/>
</linearGradient>
<linearGradient id="paint2_linear" x1="17.6466" y1="14.4778" x2="28.6075" y2="32.5013" gradientUnits="userSpaceOnUse">
<stop offset="0.1077" stop-color="#64D633" stop-opacity="0.7"/>
<stop offset="0.2423" stop-color="#41BD71" stop-opacity="0.6276"/>
<stop offset="0.4795" stop-color="#008FE7" stop-opacity="0.5"/>
<stop offset="0.5194" stop-color="#3A8CCC" stop-opacity="0.5"/>
<stop offset="0.5623" stop-color="#7288B2" stop-opacity="0.5"/>
<stop offset="0.6042" stop-color="#A0869D" stop-opacity="0.5"/>
<stop offset="0.6439" stop-color="#C3848D" stop-opacity="0.5"/>
<stop offset="0.681" stop-color="#DD8281" stop-opacity="0.5"/>
<stop offset="0.7144" stop-color="#ED817A" stop-opacity="0.5"/>
<stop offset="0.741" stop-color="#F28177" stop-opacity="0.5"/>
<stop offset="0.846" stop-color="#F29575" stop-opacity="0.2974"/>
<stop offset="1" stop-color="#F2AE72" stop-opacity="0"/>
</linearGradient>
</defs>
</svg>
